<svg width="24" height="24" viewBox="0 0 24 24" fill="none" xmlns="http://www.w3.org/2000/svg">
  <rect x="8" y="2" width="8" height="13" rx="4" stroke="#fff" stroke-width="1.5" />
  <path
    d="M20.75 11.5C20.75 11.0858 20.4142 10.75 20 10.75C19.5858 10.75 19.25 11.0858 19.25 11.5H20.75ZM4.75 11.5C4.75 11.0858 4.41421 10.75 4 10.75C3.58579 10.75 3.25 11.0858 3.25 11.5H4.75ZM19.25 11.5C19.25 15.5041 16.0041 18.75 12 18.75V20.25C16.8325 20.25 20.75 16.3325 20.75 11.5H19.25ZM12 18.75C7.99594 18.75 4.75 15.5041 4.75 11.5H3.25C3.25 16.3325 7.16751 20.25 12 20.25V18.75Z"
    fill="#ec5242" />
  <path
    d="M11.25 22C11.25 22.4142 11.5858 22.75 12 22.75C12.4142 22.75 12.75 22.4142 12.75 22H11.25ZM12.75 20C12.75 19.5858 12.4142 19.25 12 19.25C11.5858 19.25 11.25 19.5858 11.25 20H12.75ZM12.75 22V20H11.25V22H12.75Z"
    fill="#ec5242" />
</svg>